<mxfile host="app.diagrams.net" agent="Mozilla/5.0 (Windows NT 10.0; Win64; x64) AppleWebKit/537.36 (KHTML, like Gecko) Chrome/141.0.0.0 Safari/537.36" version="28.2.8">
  <diagram name="Page-1" id="E_8iWiK8-yqENinTD9_b">
    <mxGraphModel dx="1603" dy="957" grid="1" gridSize="10" guides="1" tooltips="1" connect="1" arrows="1" fold="1" page="1" pageScale="1" pageWidth="850" pageHeight="1400" background="#ffffff" math="0" shadow="0">
      <root>
        <mxCell id="0" />
        <mxCell id="1" parent="0" />
        <mxCell id="jHyLRw2xHg_KPYhUbpof-1" value="Student" style="shape=umlActor;verticalLabelPosition=bottom;verticalAlign=top;html=1;" vertex="1" parent="1">
          <mxGeometry x="110" y="200" width="30" height="60" as="geometry" />
        </mxCell>
        <mxCell id="jHyLRw2xHg_KPYhUbpof-2" value="Instructor" style="shape=umlActor;verticalLabelPosition=bottom;verticalAlign=top;html=1;" vertex="1" parent="1">
          <mxGeometry x="110" y="490" width="30" height="60" as="geometry" />
        </mxCell>
        <mxCell id="jHyLRw2xHg_KPYhUbpof-3" value="Admin" style="shape=umlActor;verticalLabelPosition=bottom;verticalAlign=top;html=1;" vertex="1" parent="1">
          <mxGeometry x="100" y="1020" width="30" height="60" as="geometry" />
        </mxCell>
        <mxCell id="jHyLRw2xHg_KPYhUbpof-7" value="" style="rounded=0;whiteSpace=wrap;html=1;direction=south;" vertex="1" parent="1">
          <mxGeometry x="300" y="40" width="431" height="1300" as="geometry" />
        </mxCell>
        <mxCell id="jHyLRw2xHg_KPYhUbpof-10" value="&lt;font style=&quot;font-size: 27px;&quot;&gt;SkillForge Platform&lt;/font&gt;" style="rounded=0;whiteSpace=wrap;html=1;" vertex="1" parent="1">
          <mxGeometry x="350" y="50" width="320" height="40" as="geometry" />
        </mxCell>
        <mxCell id="jHyLRw2xHg_KPYhUbpof-25" value="Browse Course" style="ellipse;whiteSpace=wrap;html=1;fontSize=26;" vertex="1" parent="1">
          <mxGeometry x="345" y="110" width="330" height="70" as="geometry" />
        </mxCell>
        <mxCell id="jHyLRw2xHg_KPYhUbpof-26" value="Enroll in a Course" style="ellipse;whiteSpace=wrap;html=1;fontSize=26;" vertex="1" parent="1">
          <mxGeometry x="345" y="188" width="330" height="70" as="geometry" />
        </mxCell>
        <mxCell id="jHyLRw2xHg_KPYhUbpof-27" value="Complete Lessons" style="ellipse;whiteSpace=wrap;html=1;fontSize=26;" vertex="1" parent="1">
          <mxGeometry x="345" y="266" width="330" height="70" as="geometry" />
        </mxCell>
        <mxCell id="jHyLRw2xHg_KPYhUbpof-28" value="Solve Quizzes" style="ellipse;whiteSpace=wrap;html=1;fontSize=26;" vertex="1" parent="1">
          <mxGeometry x="345" y="344" width="330" height="70" as="geometry" />
        </mxCell>
        <mxCell id="jHyLRw2xHg_KPYhUbpof-29" value="Earn Certificates" style="ellipse;whiteSpace=wrap;html=1;fontSize=26;" vertex="1" parent="1">
          <mxGeometry x="345" y="421" width="330" height="70" as="geometry" />
        </mxCell>
        <mxCell id="jHyLRw2xHg_KPYhUbpof-41" value="" style="endArrow=classic;html=1;rounded=0;" edge="1" parent="1" target="jHyLRw2xHg_KPYhUbpof-26">
          <mxGeometry width="50" height="50" relative="1" as="geometry">
            <mxPoint x="140" y="240" as="sourcePoint" />
            <mxPoint x="190" y="190" as="targetPoint" />
          </mxGeometry>
        </mxCell>
        <mxCell id="jHyLRw2xHg_KPYhUbpof-42" value="" style="endArrow=classic;html=1;rounded=0;entryX=0;entryY=0.5;entryDx=0;entryDy=0;" edge="1" parent="1" target="jHyLRw2xHg_KPYhUbpof-25">
          <mxGeometry width="50" height="50" relative="1" as="geometry">
            <mxPoint x="140" y="240" as="sourcePoint" />
            <mxPoint x="190" y="180" as="targetPoint" />
          </mxGeometry>
        </mxCell>
        <mxCell id="jHyLRw2xHg_KPYhUbpof-43" value="" style="endArrow=classic;html=1;rounded=0;entryX=0;entryY=0.5;entryDx=0;entryDy=0;" edge="1" parent="1" target="jHyLRw2xHg_KPYhUbpof-27">
          <mxGeometry width="50" height="50" relative="1" as="geometry">
            <mxPoint x="140" y="240" as="sourcePoint" />
            <mxPoint x="190" y="190" as="targetPoint" />
          </mxGeometry>
        </mxCell>
        <mxCell id="jHyLRw2xHg_KPYhUbpof-44" value="" style="endArrow=classic;html=1;rounded=0;entryX=0;entryY=0.5;entryDx=0;entryDy=0;" edge="1" parent="1" target="jHyLRw2xHg_KPYhUbpof-28">
          <mxGeometry width="50" height="50" relative="1" as="geometry">
            <mxPoint x="140" y="240" as="sourcePoint" />
            <mxPoint x="190" y="190" as="targetPoint" />
          </mxGeometry>
        </mxCell>
        <mxCell id="jHyLRw2xHg_KPYhUbpof-45" value="" style="endArrow=classic;html=1;rounded=0;entryX=0;entryY=0.5;entryDx=0;entryDy=0;" edge="1" parent="1" target="jHyLRw2xHg_KPYhUbpof-29">
          <mxGeometry width="50" height="50" relative="1" as="geometry">
            <mxPoint x="140" y="240" as="sourcePoint" />
            <mxPoint x="190" y="190" as="targetPoint" />
          </mxGeometry>
        </mxCell>
        <mxCell id="jHyLRw2xHg_KPYhUbpof-49" value="" style="curved=1;endArrow=classic;html=1;rounded=0;entryX=1;entryY=0.5;entryDx=0;entryDy=0;fillColor=#6a00ff;strokeColor=#000000;" edge="1" parent="1" target="jHyLRw2xHg_KPYhUbpof-26">
          <mxGeometry width="50" height="50" relative="1" as="geometry">
            <mxPoint x="680" y="140" as="sourcePoint" />
            <mxPoint x="670" y="190" as="targetPoint" />
            <Array as="points">
              <mxPoint x="730" y="140" />
              <mxPoint x="850" y="170" />
              <mxPoint x="760" y="210" />
            </Array>
          </mxGeometry>
        </mxCell>
        <mxCell id="jHyLRw2xHg_KPYhUbpof-51" value="&lt;font style=&quot;font-size: 14px;&quot;&gt;includes&lt;/font&gt;" style="text;html=1;whiteSpace=wrap;strokeColor=none;fillColor=none;align=center;verticalAlign=middle;rounded=0;" vertex="1" parent="1">
          <mxGeometry x="750" y="160" width="60" height="30" as="geometry" />
        </mxCell>
        <mxCell id="jHyLRw2xHg_KPYhUbpof-52" value="" style="curved=1;endArrow=classic;html=1;rounded=0;entryX=1;entryY=0.5;entryDx=0;entryDy=0;" edge="1" parent="1">
          <mxGeometry width="50" height="50" relative="1" as="geometry">
            <mxPoint x="675" y="230" as="sourcePoint" />
            <mxPoint x="670" y="315" as="targetPoint" />
            <Array as="points">
              <mxPoint x="725" y="230" />
              <mxPoint x="845" y="260" />
              <mxPoint x="755" y="300" />
            </Array>
          </mxGeometry>
        </mxCell>
        <mxCell id="jHyLRw2xHg_KPYhUbpof-53" value="&lt;font style=&quot;font-size: 14px;&quot;&gt;includes&lt;/font&gt;" style="text;html=1;whiteSpace=wrap;strokeColor=none;fillColor=none;align=center;verticalAlign=middle;rounded=0;" vertex="1" parent="1">
          <mxGeometry x="740" y="250" width="60" height="30" as="geometry" />
        </mxCell>
        <mxCell id="jHyLRw2xHg_KPYhUbpof-54" value="&lt;font style=&quot;font-size: 14px;&quot;&gt;includes&lt;/font&gt;" style="text;html=1;whiteSpace=wrap;strokeColor=none;fillColor=none;align=center;verticalAlign=middle;rounded=0;" vertex="1" parent="1">
          <mxGeometry x="730" y="340" width="60" height="30" as="geometry" />
        </mxCell>
        <mxCell id="jHyLRw2xHg_KPYhUbpof-55" value="&lt;font style=&quot;font-size: 14px;&quot;&gt;includes&lt;/font&gt;" style="text;html=1;whiteSpace=wrap;strokeColor=none;fillColor=none;align=center;verticalAlign=middle;rounded=0;" vertex="1" parent="1">
          <mxGeometry x="730" y="410" width="60" height="30" as="geometry" />
        </mxCell>
        <mxCell id="jHyLRw2xHg_KPYhUbpof-60" value="" style="curved=1;endArrow=classic;html=1;rounded=0;entryX=1;entryY=0.5;entryDx=0;entryDy=0;" edge="1" parent="1">
          <mxGeometry width="50" height="50" relative="1" as="geometry">
            <mxPoint x="680" y="310" as="sourcePoint" />
            <mxPoint x="675" y="395" as="targetPoint" />
            <Array as="points">
              <mxPoint x="730" y="310" />
              <mxPoint x="850" y="340" />
              <mxPoint x="760" y="380" />
            </Array>
          </mxGeometry>
        </mxCell>
        <mxCell id="jHyLRw2xHg_KPYhUbpof-61" value="" style="curved=1;endArrow=classic;html=1;rounded=0;entryX=1;entryY=0.5;entryDx=0;entryDy=0;" edge="1" parent="1" target="jHyLRw2xHg_KPYhUbpof-29">
          <mxGeometry width="50" height="50" relative="1" as="geometry">
            <mxPoint x="680" y="390" as="sourcePoint" />
            <mxPoint x="675" y="475" as="targetPoint" />
            <Array as="points">
              <mxPoint x="730" y="390" />
              <mxPoint x="850" y="420" />
              <mxPoint x="800" y="440" />
              <mxPoint x="750" y="450" />
              <mxPoint x="710" y="450" />
            </Array>
          </mxGeometry>
        </mxCell>
        <mxCell id="jHyLRw2xHg_KPYhUbpof-62" value="View Analytics" style="ellipse;whiteSpace=wrap;html=1;fontSize=26;" vertex="1" parent="1">
          <mxGeometry x="345" y="499" width="330" height="70" as="geometry" />
        </mxCell>
        <mxCell id="jHyLRw2xHg_KPYhUbpof-63" value="" style="endArrow=classic;html=1;rounded=0;entryX=0;entryY=0.5;entryDx=0;entryDy=0;" edge="1" parent="1" target="jHyLRw2xHg_KPYhUbpof-62">
          <mxGeometry width="50" height="50" relative="1" as="geometry">
            <mxPoint x="140" y="240" as="sourcePoint" />
            <mxPoint x="170" y="420" as="targetPoint" />
          </mxGeometry>
        </mxCell>
        <mxCell id="jHyLRw2xHg_KPYhUbpof-64" value="" style="endArrow=classic;html=1;rounded=0;" edge="1" parent="1">
          <mxGeometry width="50" height="50" relative="1" as="geometry">
            <mxPoint x="150" y="520" as="sourcePoint" />
            <mxPoint x="350" y="530" as="targetPoint" />
          </mxGeometry>
        </mxCell>
        <mxCell id="jHyLRw2xHg_KPYhUbpof-65" value="Login" style="ellipse;whiteSpace=wrap;html=1;fontSize=26;" vertex="1" parent="1">
          <mxGeometry x="345" y="577" width="330" height="70" as="geometry" />
        </mxCell>
        <mxCell id="jHyLRw2xHg_KPYhUbpof-66" value="" style="endArrow=classic;html=1;rounded=0;entryX=0;entryY=0.5;entryDx=0;entryDy=0;" edge="1" parent="1" target="jHyLRw2xHg_KPYhUbpof-65">
          <mxGeometry width="50" height="50" relative="1" as="geometry">
            <mxPoint x="140" y="240" as="sourcePoint" />
            <mxPoint x="170" y="490" as="targetPoint" />
          </mxGeometry>
        </mxCell>
        <mxCell id="jHyLRw2xHg_KPYhUbpof-67" value="" style="endArrow=classic;html=1;rounded=0;entryX=0;entryY=0.5;entryDx=0;entryDy=0;" edge="1" parent="1" target="jHyLRw2xHg_KPYhUbpof-65">
          <mxGeometry width="50" height="50" relative="1" as="geometry">
            <mxPoint x="150" y="520" as="sourcePoint" />
            <mxPoint x="170" y="490" as="targetPoint" />
          </mxGeometry>
        </mxCell>
        <mxCell id="jHyLRw2xHg_KPYhUbpof-68" value="Create a Course" style="ellipse;whiteSpace=wrap;html=1;fontSize=26;" vertex="1" parent="1">
          <mxGeometry x="345" y="655" width="330" height="70" as="geometry" />
        </mxCell>
        <mxCell id="jHyLRw2xHg_KPYhUbpof-69" value="Manage a Course" style="ellipse;whiteSpace=wrap;html=1;fontSize=26;" vertex="1" parent="1">
          <mxGeometry x="345" y="733" width="330" height="70" as="geometry" />
        </mxCell>
        <mxCell id="jHyLRw2xHg_KPYhUbpof-70" value="Upload a Lesson" style="ellipse;whiteSpace=wrap;html=1;fontSize=26;" vertex="1" parent="1">
          <mxGeometry x="345" y="811" width="330" height="70" as="geometry" />
        </mxCell>
        <mxCell id="jHyLRw2xHg_KPYhUbpof-71" value="Design Quizzes" style="ellipse;whiteSpace=wrap;html=1;fontSize=26;" vertex="1" parent="1">
          <mxGeometry x="345" y="889" width="330" height="70" as="geometry" />
        </mxCell>
        <mxCell id="jHyLRw2xHg_KPYhUbpof-72" value="Manage Users" style="ellipse;whiteSpace=wrap;html=1;fontSize=26;" vertex="1" parent="1">
          <mxGeometry x="345" y="966" width="330" height="70" as="geometry" />
        </mxCell>
        <mxCell id="jHyLRw2xHg_KPYhUbpof-73" value="Approve Courses" style="ellipse;whiteSpace=wrap;html=1;fontSize=26;" vertex="1" parent="1">
          <mxGeometry x="345" y="1044" width="330" height="70" as="geometry" />
        </mxCell>
        <mxCell id="jHyLRw2xHg_KPYhUbpof-74" value="Remove Courses" style="ellipse;whiteSpace=wrap;html=1;fontSize=26;" vertex="1" parent="1">
          <mxGeometry x="345" y="1122" width="330" height="70" as="geometry" />
        </mxCell>
        <mxCell id="jHyLRw2xHg_KPYhUbpof-75" value="Monitor Platform Analytics" style="ellipse;whiteSpace=wrap;html=1;fontSize=26;" vertex="1" parent="1">
          <mxGeometry x="345" y="1200" width="330" height="70" as="geometry" />
        </mxCell>
        <mxCell id="jHyLRw2xHg_KPYhUbpof-77" value="" style="endArrow=classic;html=1;rounded=0;entryX=0;entryY=0.5;entryDx=0;entryDy=0;" edge="1" parent="1" target="jHyLRw2xHg_KPYhUbpof-68">
          <mxGeometry width="50" height="50" relative="1" as="geometry">
            <mxPoint x="150" y="520" as="sourcePoint" />
            <mxPoint x="520" y="690" as="targetPoint" />
          </mxGeometry>
        </mxCell>
        <mxCell id="jHyLRw2xHg_KPYhUbpof-79" value="" style="endArrow=classic;html=1;rounded=0;entryX=0;entryY=0.5;entryDx=0;entryDy=0;" edge="1" parent="1" target="jHyLRw2xHg_KPYhUbpof-72">
          <mxGeometry width="50" height="50" relative="1" as="geometry">
            <mxPoint x="140" y="1040" as="sourcePoint" />
            <mxPoint x="520" y="690" as="targetPoint" />
          </mxGeometry>
        </mxCell>
        <mxCell id="jHyLRw2xHg_KPYhUbpof-80" value="" style="endArrow=classic;html=1;rounded=0;entryX=0;entryY=0.5;entryDx=0;entryDy=0;" edge="1" parent="1" target="jHyLRw2xHg_KPYhUbpof-69">
          <mxGeometry width="50" height="50" relative="1" as="geometry">
            <mxPoint x="150" y="520" as="sourcePoint" />
            <mxPoint x="520" y="690" as="targetPoint" />
          </mxGeometry>
        </mxCell>
        <mxCell id="jHyLRw2xHg_KPYhUbpof-82" value="" style="endArrow=classic;html=1;rounded=0;entryX=0;entryY=0.5;entryDx=0;entryDy=0;" edge="1" parent="1">
          <mxGeometry width="50" height="50" relative="1" as="geometry">
            <mxPoint x="150" y="520" as="sourcePoint" />
            <mxPoint x="345" y="848" as="targetPoint" />
          </mxGeometry>
        </mxCell>
        <mxCell id="jHyLRw2xHg_KPYhUbpof-83" value="" style="endArrow=classic;html=1;rounded=0;entryX=0;entryY=0.5;entryDx=0;entryDy=0;" edge="1" parent="1" target="jHyLRw2xHg_KPYhUbpof-71">
          <mxGeometry width="50" height="50" relative="1" as="geometry">
            <mxPoint x="150" y="520" as="sourcePoint" />
            <mxPoint x="340" y="920" as="targetPoint" />
          </mxGeometry>
        </mxCell>
        <mxCell id="jHyLRw2xHg_KPYhUbpof-84" value="" style="endArrow=classic;html=1;rounded=0;entryX=0;entryY=0.5;entryDx=0;entryDy=0;" edge="1" parent="1" target="jHyLRw2xHg_KPYhUbpof-73">
          <mxGeometry width="50" height="50" relative="1" as="geometry">
            <mxPoint x="145" y="1040" as="sourcePoint" />
            <mxPoint x="350" y="1030.5" as="targetPoint" />
          </mxGeometry>
        </mxCell>
        <mxCell id="jHyLRw2xHg_KPYhUbpof-85" value="" style="endArrow=classic;html=1;rounded=0;entryX=0;entryY=0.5;entryDx=0;entryDy=0;" edge="1" parent="1">
          <mxGeometry width="50" height="50" relative="1" as="geometry">
            <mxPoint x="140" y="1040" as="sourcePoint" />
            <mxPoint x="345" y="1161" as="targetPoint" />
          </mxGeometry>
        </mxCell>
        <mxCell id="jHyLRw2xHg_KPYhUbpof-86" value="" style="endArrow=classic;html=1;rounded=0;entryX=0;entryY=0.5;entryDx=0;entryDy=0;" edge="1" parent="1" target="jHyLRw2xHg_KPYhUbpof-75">
          <mxGeometry width="50" height="50" relative="1" as="geometry">
            <mxPoint x="140" y="1040" as="sourcePoint" />
            <mxPoint x="345" y="1243" as="targetPoint" />
          </mxGeometry>
        </mxCell>
        <mxCell id="jHyLRw2xHg_KPYhUbpof-96" value="&lt;font style=&quot;font-size: 15px;&quot;&gt;includes&lt;/font&gt;" style="html=1;verticalAlign=bottom;endArrow=open;endSize=8;curved=1;rounded=0;exitX=1;exitY=0.5;exitDx=0;exitDy=0;entryX=1;entryY=0.5;entryDx=0;entryDy=0;" edge="1" parent="1" source="jHyLRw2xHg_KPYhUbpof-69" target="jHyLRw2xHg_KPYhUbpof-70">
          <mxGeometry relative="1" as="geometry">
            <mxPoint x="780" y="767.37" as="sourcePoint" />
            <mxPoint x="780" y="770" as="targetPoint" />
            <Array as="points">
              <mxPoint x="790" y="770" />
              <mxPoint x="790" y="830" />
            </Array>
          </mxGeometry>
        </mxCell>
        <mxCell id="jHyLRw2xHg_KPYhUbpof-100" value="" style="curved=1;endArrow=classic;html=1;rounded=0;exitX=1;exitY=0.5;exitDx=0;exitDy=0;entryX=1;entryY=0.5;entryDx=0;entryDy=0;" edge="1" parent="1" source="jHyLRw2xHg_KPYhUbpof-69" target="jHyLRw2xHg_KPYhUbpof-71">
          <mxGeometry width="50" height="50" relative="1" as="geometry">
            <mxPoint x="800" y="880" as="sourcePoint" />
            <mxPoint x="750" y="930" as="targetPoint" />
            <Array as="points">
              <mxPoint x="830" y="800" />
              <mxPoint x="800" y="930" />
            </Array>
          </mxGeometry>
        </mxCell>
        <mxCell id="jHyLRw2xHg_KPYhUbpof-101" value="&lt;font style=&quot;font-size: 14px;&quot;&gt;includes&lt;/font&gt;" style="text;html=1;whiteSpace=wrap;strokeColor=none;fillColor=none;align=center;verticalAlign=middle;rounded=0;" vertex="1" parent="1">
          <mxGeometry x="731" y="851" width="60" height="30" as="geometry" />
        </mxCell>
      </root>
    </mxGraphModel>
  </diagram>
</mxfile>
